<svg height="511pt" viewBox="-63 0 511 511.99992" width="511pt" xmlns="http://www.w3.org/2000/svg"><path d="m232.195312 388.703125h-78.929687s-66.707031 32.96875-87.078125 123.296875h253.082031c-20.371093-90.328125-87.074219-123.296875-87.074219-123.296875zm0 0" fill="#00915d"/><path d="m319.269531 512h-21.089843c-20.375-90.332031-87.078126-123.292969-87.078126-123.292969h21.09375s66.707032 32.960938 87.074219 123.292969zm0 0" fill="#006841"/><path d="m337.902344 217.777344h9.273437c21.058594 0 38.128907 17.074218 38.128907 38.132812s-17.070313 38.128906-38.128907 38.128906h-9.273437zm0 0" fill="#fed2a4"/><path d="m46.652344 217.777344h-8.023438c-21.058594 0-38.128906 17.074218-38.128906 38.132812s17.070312 38.128906 38.128906 38.128906h8.023438zm0 0" fill="#fed2a4"/><path d="m235.257812 404.058594h-84.734374c-60.726563 0-109.957032-49.28125-109.957032-110.078125v-166.667969l152.324219-18.3125 152.324219 18.3125v166.671875c0 60.792969-49.230469 110.074219-109.957032 110.074219zm0 0" fill="#fed2a4"/><path d="m345.214844 127.3125v166.664062c0 60.804688-49.289063 110.082032-110.078125 110.082032h-23.648438c60.792969 0 110.078125-49.277344 110.078125-110.082032v-166.664062zm0 0" fill="#ffbd86"/><path d="m120.082031 275.3125c0 9.054688-7.34375 16.398438-16.402343 16.398438-9.054688 0-16.398438-7.34375-16.398438-16.398438 0-9.058594 7.34375-16.402344 16.398438-16.402344 9.058593 0 16.402343 7.34375 16.402343 16.402344zm0 0" fill="#ff7a7a"/><path d="m298.175781 275.3125c0 9.054688-7.339843 16.398438-16.398437 16.398438s-16.398438-7.34375-16.398438-16.398438c0-9.058594 7.339844-16.402344 16.398438-16.402344s16.398437 7.34375 16.398437 16.402344zm0 0" fill="#ff7a7a"/><path d="m192.730469 285.445312c-34.910157 40.214844-152.164063 9.09375-152.164063 9.09375v11.167969c0 68.195313 55.148438 123.480469 123.175782 123.480469h57.972656c68.027344 0 123.171875-55.285156 123.171875-123.480469v-11.167969c.003906 0-117.25 31.121094-152.15625-9.09375zm0 0" fill="#845f3f"/><path d="m192.730469 285.445312c-34.910157 40.214844-152.488281 8.539063-152.488281 8.539063l.324218 11.722656c0 68.199219 55.148438 123.480469 123.175782 123.480469h57.972656c68.027344 0 123.171875-55.28125 123.171875-123.480469v-11.167969c.003906 0-117.25 31.121094-152.15625-9.09375zm0 0" fill="#a87a52"/><path d="m345.214844 294.460938-.324219 11.246093c0 68.195313-55.148437 123.476563-123.179687 123.476563h-23.296876c68.019532 0 123.167969-55.28125 123.167969-123.476563v-6.085937c14.0625-2.640625 23.632813-5.160156 23.632813-5.160156zm0 0" fill="#906846"/><g fill="#575f64"><path d="m146.714844 231.375c-4.257813 0-7.710938 3.453125-7.710938 7.710938v16.914062c0 4.257812 3.453125 7.710938 7.710938 7.710938 4.257812 0 7.710937-3.453126 7.710937-7.710938v-16.914062c0-4.257813-3.453125-7.710938-7.710937-7.710938zm0 0"/><path d="m238.742188 231.375c-4.261719 0-7.710938 3.453125-7.710938 7.710938v16.914062c0 4.257812 3.449219 7.710938 7.710938 7.710938 4.257812 0 7.710937-3.453126 7.710937-7.710938v-16.914062c0-4.257813-3.453125-7.710938-7.710937-7.710938zm0 0"/><path d="m149.164062 193.292969c-9.746093.488281-18.691406 3.171875-25.871093 7.757812-5.574219 3.5625-8.28125 7.078125-8.769531 7.746094-2.503907 3.445313-1.742188 8.265625 1.703124 10.773437 1.367188.996094 2.957032 1.472657 4.527344 1.472657 2.386719 0 4.734375-1.097657 6.242188-3.175781.0625-.082032 6.519531-8.347657 22.9375-9.171876 4.253906-.210937 7.53125-3.832031 7.316406-8.085937s-3.847656-7.542969-8.085938-7.316406zm0 0"/><path d="m270.933594 208.796875c-.488282-.667969-3.195313-4.183594-8.769532-7.746094-7.179687-4.585937-16.125-7.269531-25.867187-7.757812-4.242187-.226563-7.875 3.0625-8.089844 7.316406-.210937 4.253906 3.066407 7.875 7.316407 8.085937 16.421874.820313 22.875 9.089844 22.9375 9.171876 1.507812 2.074218 3.859374 3.175781 6.242187 3.175781 1.574219 0 3.160156-.476563 4.527344-1.472657 3.445312-2.507812 4.207031-7.328124 1.703125-10.773437zm0 0"/></g><path d="m345.214844 128.71875v110.371094h-11.371094c-11.421875 0-20.941406-9.011719-21.910156-20.738282l-7.839844-94.472656h40.699219c.261719 2.222656.421875 3.941406.421875 4.839844zm0 0" fill="#a87a52"/><path d="m345.214844 128.71875v110.371094h-11.371094c-4.390625 0-8.820312-1.441406-12.269531-3.738282v-111.472656h23.21875c.261719 2.222656.421875 3.941406.421875 4.839844zm0 0" fill="#906846"/><path d="m81.691406 123.878906-.25 3-7.589844 91.472656c-.96875 11.726563-10.488281 20.738282-21.910156 20.738282h-11.367187v-109.941406c.046875-1.769532.140625-3.527344.257812-5.269532zm0 0" fill="#a87a52"/><path d="m345.085938 129.398438c.957031.066406-3.859376-30.84375-4.625-33.769532-2.570313-9.824218-6.292969-19.328125-11.238282-28.144531-8.652344-15.417969-20.917968-28.316406-35.226562-38.21875-42.664063-29.535156-99.734375-35.476563-148.5625-23.367187-59.457032 14.742187-102.992188 58.058593-104.867188 123.5 18.789063-1.273438 37.589844-2.363282 56.394532-3.367188 16.503906-.882812 33.011718-1.675781 49.527343-2.300781 65.992188-2.5 132.40625 1.234375 198.554688 5.664062.015625.003907.03125.003907.042969.003907zm0 0" fill="#57bf93"/><path d="m345.089844 129.398438h-.050782c-7.773437-.523438-15.554687-1.027344-23.339843-1.523438-.359375-6.230469-4.058594-29.722656-4.71875-32.25-2.570313-9.820312-6.289063-19.332031-11.234375-28.140625-8.65625-15.421875-20.921875-28.3125-35.234375-38.222656-25.808594-17.871094-56.886719-27.09375-88.222657-28.910157 38.945313-2.261718 79.453126 6.578126 111.703126 28.910157 14.3125 9.910156 26.578124 22.804687 35.234374 38.222656 4.945313 8.8125 8.667969 18.324219 11.238282 28.140625.757812 2.929688 5.582031 33.835938 4.625 33.773438zm0 0" fill="#1fb480"/><path d="m193.054688 292.484375c-9.589844 0-18.203126-5.707031-21.941407-14.539063-1.660156-3.933593.175781-8.464843 4.109375-10.128906 3.929688-1.664062 8.460938.175782 10.125 4.105469 1.3125 3.105469 4.335938 5.109375 7.707032 5.109375 3.203124 0 6.167968-1.871094 7.546874-4.761719 1.839844-3.851562 6.453126-5.480469 10.304688-3.644531 3.851562 1.84375 5.480469 6.453125 3.640625 10.304688-3.933594 8.234374-12.371094 13.554687-21.492187 13.554687zm0 0" fill="#575f64"/></svg>